<svg xmlns="http://www.w3.org/2000/svg" width="80" height="80" viewBox="0 0 80 80"><defs><linearGradient id="paper" x1="0" y1="0" x2="0" y2="1"><stop stop-color="#f7edcb"/><stop offset=".5" stop-color="#efe2b9"/><stop offset="1" stop-color="#e1cfa0"/></linearGradient><linearGradient id="gold" x1="0" y1="0" x2=".65" y2="1"><stop stop-color="#f9e4ae"/><stop offset=".26" stop-color="#e1bd71"/><stop offset=".27" stop-color="#b48746"/><stop offset=".72" stop-color="#cca15e"/><stop offset=".73" stop-color="#927046"/></linearGradient><linearGradient id="teal" x1="0" y1="0" x2=".7" y2="1"><stop stop-color="#67a19a"/><stop offset=".45" stop-color="#548f87"/><stop offset=".46" stop-color="#3d786f"/><stop offset="1" stop-color="#315a59"/></linearGradient><pattern id="fiber" width="81" height="57" patternUnits="userSpaceOnUse"><path d="M8.2 0.6l4.2 0.0" fill="none" stroke="#fffce3" stroke-width="0.6225941804934387" opacity=".11"/><path d="M20.7 33.2l4.6 -0.2" fill="none" stroke="#8f7848" stroke-width="0.4948879655784484" opacity=".11"/><path d="M4.3 42.5l6.0 -0.0" fill="none" stroke="#8f7848" stroke-width="0.502877838842787" opacity=".11"/><path d="M58.8 21.1l1.8 0.3" fill="none" stroke="#fffce3" stroke-width="0.6892882635863654" opacity=".11"/><path d="M59.4 40.3l1.5 -0.2" fill="none" stroke="#fffce3" stroke-width="0.5789309945485371" opacity=".11"/><path d="M18.4 30.4l5.0 0.1" fill="none" stroke="#8f7848" stroke-width="0.5098698305687047" opacity=".11"/><path d="M54.5 16.7l3.4 0.3" fill="none" stroke="#fffce3" stroke-width="0.5017145062091523" opacity=".11"/><path d="M21.7 23.9l4.4 -0.1" fill="none" stroke="#8f7848" stroke-width="0.6512131783912694" opacity=".11"/><path d="M64.6 12.4l3.4 -0.2" fill="none" stroke="#fffce3" stroke-width="0.4817004515980558" opacity=".11"/><path d="M77.4 4.7l4.9 0.0" fill="none" stroke="#fffce3" stroke-width="0.47759709377130255" opacity=".11"/><path d="M47.6 30.2l5.7 0.1" fill="none" stroke="#8f7848" stroke-width="0.5479855267369838" opacity=".11"/><path d="M80.6 48.4l1.5 -0.1" fill="none" stroke="#8f7848" stroke-width="0.6397788413335012" opacity=".11"/><path d="M47.4 49.4l1.7 0.1" fill="none" stroke="#8f7848" stroke-width="0.5254749409987767" opacity=".11"/><path d="M12.9 39.2l1.5 -0.0" fill="none" stroke="#fffce3" stroke-width="0.5008955132395527" opacity=".11"/><path d="M7.8 40.2l1.8 0.2" fill="none" stroke="#8f7848" stroke-width="0.5067242745098003" opacity=".11"/><path d="M53.6 24.9l2.7 0.1" fill="none" stroke="#8f7848" stroke-width="0.43532991362875667" opacity=".11"/><path d="M54.5 14.9l3.2 0.1" fill="none" stroke="#8f7848" stroke-width="0.41503054851269133" opacity=".11"/><path d="M47.1 3.8l4.8 -0.1" fill="none" stroke="#fffce3" stroke-width="0.6055516435522716" opacity=".11"/><path d="M39.7 18.0l1.0 -0.0" fill="none" stroke="#8f7848" stroke-width="0.6793285998231355" opacity=".11"/><path d="M23.4 16.8l2.1 -0.3" fill="none" stroke="#fffce3" stroke-width="0.520314998440631" opacity=".11"/><path d="M32.6 2.0l1.5 -0.1" fill="none" stroke="#fffce3" stroke-width="0.5492570313155811" opacity=".11"/><path d="M21.9 1.9l2.5 0.2" fill="none" stroke="#8f7848" stroke-width="0.6936471629905603" opacity=".11"/><path d="M44.7 29.2l1.9 0.2" fill="none" stroke="#8f7848" stroke-width="0.45443423088373985" opacity=".11"/><path d="M38.3 26.0l5.8 0.2" fill="none" stroke="#8f7848" stroke-width="0.5580190814028865" opacity=".11"/><path d="M44.9 24.4l1.1 -0.1" fill="none" stroke="#fffce3" stroke-width="0.686202907690938" opacity=".11"/><path d="M25.5 1.6l1.5 0.0" fill="none" stroke="#fffce3" stroke-width="0.5269757868371985" opacity=".11"/><path d="M38.6 50.3l2.7 0.1" fill="none" stroke="#fffce3" stroke-width="0.6235642094965097" opacity=".11"/><path d="M36.4 47.2l2.5 -0.2" fill="none" stroke="#8f7848" stroke-width="0.40990476376878465" opacity=".11"/><path d="M11.8 54.2l2.1 -0.1" fill="none" stroke="#8f7848" stroke-width="0.5980353180856964" opacity=".11"/><path d="M10.0 38.2l5.3 -0.2" fill="none" stroke="#fffce3" stroke-width="0.5063197293489806" opacity=".11"/><path d="M43.7 24.1l3.0 0.2" fill="none" stroke="#fffce3" stroke-width="0.42303110110814846" opacity=".11"/><path d="M21.7 37.0l5.0 -0.0" fill="none" stroke="#8f7848" stroke-width="0.4916531665065085" opacity=".11"/><path d="M19.2 26.5l3.5 0.1" fill="none" stroke="#fffce3" stroke-width="0.41580841693809467" opacity=".11"/><path d="M37.7 8.5l5.3 0.1" fill="none" stroke="#fffce3" stroke-width="0.5314257385211085" opacity=".11"/><path d="M13.4 48.5l3.0 0.1" fill="none" stroke="#fffce3" stroke-width="0.5987873431944835" opacity=".11"/><path d="M58.3 29.6l4.1 0.2" fill="none" stroke="#fffce3" stroke-width="0.41069807688344684" opacity=".11"/><path d="M46.0 29.2l5.8 -0.2" fill="none" stroke="#fffce3" stroke-width="0.6123518277528697" opacity=".11"/><path d="M41.8 38.7l3.6 0.2" fill="none" stroke="#fffce3" stroke-width="0.6137948679397673" opacity=".11"/><path d="M68.8 49.9l2.0 0.2" fill="none" stroke="#8f7848" stroke-width="0.6902729278360398" opacity=".11"/><path d="M34.6 55.2l2.2 -0.3" fill="none" stroke="#fffce3" stroke-width="0.6249101839475653" opacity=".11"/><path d="M80.3 26.9l3.5 -0.2" fill="none" stroke="#8f7848" stroke-width="0.5081178416723062" opacity=".11"/><path d="M56.8 49.1l1.2 -0.2" fill="none" stroke="#8f7848" stroke-width="0.5039067828848867" opacity=".11"/><path d="M41.4 1.6l1.1 0.1" fill="none" stroke="#fffce3" stroke-width="0.5971980395501231" opacity=".11"/><path d="M33.5 36.7l4.0 -0.2" fill="none" stroke="#8f7848" stroke-width="0.6925506255572301" opacity=".11"/><path d="M80.6 15.1l2.7 0.2" fill="none" stroke="#fffce3" stroke-width="0.6715598953913748" opacity=".11"/><path d="M71.0 52.1l5.8 -0.1" fill="none" stroke="#8f7848" stroke-width="0.559705156008697" opacity=".11"/><path d="M3.5 47.2l4.6 -0.3" fill="none" stroke="#8f7848" stroke-width="0.6616374112476702" opacity=".11"/><path d="M25.3 51.8l2.2 -0.3" fill="none" stroke="#fffce3" stroke-width="0.5768552759698807" opacity=".11"/><path d="M16.8 47.6l3.7 0.3" fill="none" stroke="#fffce3" stroke-width="0.6654586559345292" opacity=".11"/><path d="M32.9 27.9l1.2 0.1" fill="none" stroke="#fffce3" stroke-width="0.6388131726149469" opacity=".11"/><path d="M72.2 43.0l2.5 0.2" fill="none" stroke="#8f7848" stroke-width="0.6499279690321765" opacity=".11"/><path d="M55.7 20.6l3.6 0.1" fill="none" stroke="#fffce3" stroke-width="0.4630633550281253" opacity=".11"/><path d="M38.4 17.8l3.6 0.1" fill="none" stroke="#8f7848" stroke-width="0.638276858353016" opacity=".11"/><path d="M65.1 4.7l4.0 -0.2" fill="none" stroke="#fffce3" stroke-width="0.5473160129814358" opacity=".11"/><path d="M14.0 35.3l2.1 -0.2" fill="none" stroke="#8f7848" stroke-width="0.4483997126151487" opacity=".11"/><path d="M8.7 29.6l2.5 0.1" fill="none" stroke="#8f7848" stroke-width="0.45284196027244866" opacity=".11"/><path d="M56.9 46.3l5.3 0.2" fill="none" stroke="#fffce3" stroke-width="0.5605801869662643" opacity=".11"/><path d="M67.3 29.0l2.5 -0.2" fill="none" stroke="#8f7848" stroke-width="0.4961090196772571" opacity=".11"/><path d="M76.1 6.7l1.4 -0.2" fill="none" stroke="#8f7848" stroke-width="0.4217116057772072" opacity=".11"/><path d="M75.3 29.9l5.5 0.0" fill="none" stroke="#fffce3" stroke-width="0.6484897834001688" opacity=".11"/><path d="M65.8 13.6l5.5 -0.2" fill="none" stroke="#fffce3" stroke-width="0.6053895500512103" opacity=".11"/><path d="M36.2 15.5l1.5 0.2" fill="none" stroke="#8f7848" stroke-width="0.4209213139070385" opacity=".11"/><path d="M70.0 14.1l3.6 -0.2" fill="none" stroke="#8f7848" stroke-width="0.4401376562050437" opacity=".11"/><path d="M57.7 32.2l3.2 -0.1" fill="none" stroke="#fffce3" stroke-width="0.47082174304830293" opacity=".11"/><path d="M6.0 19.8l5.0 -0.1" fill="none" stroke="#fffce3" stroke-width="0.45606095333448" opacity=".11"/><path d="M22.9 25.0l2.5 -0.2" fill="none" stroke="#8f7848" stroke-width="0.5142710399906933" opacity=".11"/><path d="M3.1 41.6l5.6 0.0" fill="none" stroke="#8f7848" stroke-width="0.5137801482348495" opacity=".11"/><path d="M12.2 30.9l1.1 0.1" fill="none" stroke="#fffce3" stroke-width="0.4481069840136385" opacity=".11"/><path d="M79.3 38.3l2.9 0.0" fill="none" stroke="#8f7848" stroke-width="0.536397885657334" opacity=".11"/><path d="M70.8 3.2l1.5 -0.1" fill="none" stroke="#8f7848" stroke-width="0.6441546788967724" opacity=".11"/><path d="M60.2 9.9l4.5 -0.0" fill="none" stroke="#8f7848" stroke-width="0.5115711443176768" opacity=".11"/><path d="M75.9 39.5l4.4 0.2" fill="none" stroke="#8f7848" stroke-width="0.6185430938981569" opacity=".11"/><path d="M44.0 38.3l1.6 0.0" fill="none" stroke="#8f7848" stroke-width="0.6440786244634273" opacity=".11"/><path d="M59.8 16.3l5.9 0.0" fill="none" stroke="#fffce3" stroke-width="0.40575918592292065" opacity=".11"/><path d="M56.6 6.0l3.5 0.0" fill="none" stroke="#fffce3" stroke-width="0.6307627790089003" opacity=".11"/><path d="M51.1 31.1l3.6 0.2" fill="none" stroke="#fffce3" stroke-width="0.6535310367028471" opacity=".11"/><path d="M24.7 53.5l3.7 -0.1" fill="none" stroke="#fffce3" stroke-width="0.6225534574804749" opacity=".11"/><path d="M64.8 54.5l2.7 0.3" fill="none" stroke="#8f7848" stroke-width="0.4156654919018749" opacity=".11"/><path d="M67.7 2.2l2.4 -0.2" fill="none" stroke="#fffce3" stroke-width="0.5046410863541593" opacity=".11"/><path d="M1.2 50.8l3.8 -0.2" fill="none" stroke="#fffce3" stroke-width="0.5663186431812226" opacity=".11"/><path d="M0.5 32.7l3.4 0.2" fill="none" stroke="#fffce3" stroke-width="0.546478395590575" opacity=".11"/><path d="M62.9 1.4l4.5 0.1" fill="none" stroke="#8f7848" stroke-width="0.5389278939594296" opacity=".11"/><path d="M60.9 9.2l3.0 -0.1" fill="none" stroke="#fffce3" stroke-width="0.544423051967447" opacity=".11"/><path d="M57.6 15.1l1.3 -0.2" fill="none" stroke="#fffce3" stroke-width="0.5531751829851789" opacity=".11"/><path d="M22.5 56.2l4.8 0.0" fill="none" stroke="#8f7848" stroke-width="0.4210689187113705" opacity=".11"/><path d="M17.5 28.9l5.7 0.2" fill="none" stroke="#8f7848" stroke-width="0.5639035346651329" opacity=".11"/><path d="M38.0 8.8l1.3 -0.2" fill="none" stroke="#fffce3" stroke-width="0.663389601761763" opacity=".11"/><path d="M14.2 7.0l2.8 -0.1" fill="none" stroke="#fffce3" stroke-width="0.5042266460875112" opacity=".11"/><path d="M56.0 42.9l2.1 -0.3" fill="none" stroke="#fffce3" stroke-width="0.4763182052182572" opacity=".11"/><path d="M58.8 47.2l4.5 0.2" fill="none" stroke="#8f7848" stroke-width="0.5302475456572515" opacity=".11"/><path d="M19.7 51.8l2.8 -0.3" fill="none" stroke="#8f7848" stroke-width="0.5107156638828221" opacity=".11"/><path d="M41.5 44.6l1.9 -0.2" fill="none" stroke="#8f7848" stroke-width="0.4856655568533329" opacity=".11"/><path d="M51.4 39.4l1.2 -0.2" fill="none" stroke="#8f7848" stroke-width="0.623829581254785" opacity=".11"/><path d="M27.0 16.3l5.8 0.3" fill="none" stroke="#8f7848" stroke-width="0.49958874300976885" opacity=".11"/><path d="M56.2 39.6l4.9 0.2" fill="none" stroke="#8f7848" stroke-width="0.6376831085444128" opacity=".11"/><path d="M55.1 10.5l1.1 -0.0" fill="none" stroke="#fffce3" stroke-width="0.4737215108694264" opacity=".11"/><path d="M44.3 38.6l3.5 0.2" fill="none" stroke="#fffce3" stroke-width="0.4274402194629515" opacity=".11"/><path d="M28.5 50.5l5.9 0.1" fill="none" stroke="#fffce3" stroke-width="0.6839029127634506" opacity=".11"/><path d="M30.9 48.6l4.3 0.3" fill="none" stroke="#fffce3" stroke-width="0.5593247053273648" opacity=".11"/><path d="M21.3 10.6l2.0 0.2" fill="none" stroke="#fffce3" stroke-width="0.5398812078007997" opacity=".11"/><path d="M66.1 6.1l3.2 0.1" fill="none" stroke="#fffce3" stroke-width="0.4762688517695512" opacity=".11"/><path d="M36.3 11.4l4.3 -0.3" fill="none" stroke="#8f7848" stroke-width="0.6644960532016536" opacity=".11"/><path d="M26.9 3.7l4.9 -0.1" fill="none" stroke="#8f7848" stroke-width="0.6881603576709333" opacity=".11"/><path d="M29.2 56.6l5.1 0.2" fill="none" stroke="#8f7848" stroke-width="0.6159416745679349" opacity=".11"/><path d="M37.1 20.8l2.1 0.2" fill="none" stroke="#8f7848" stroke-width="0.5122321910477017" opacity=".11"/><path d="M79.7 7.8l1.5 0.3" fill="none" stroke="#8f7848" stroke-width="0.6970638501012194" opacity=".11"/><path d="M22.0 26.6l1.7 -0.3" fill="none" stroke="#fffce3" stroke-width="0.6043259857692009" opacity=".11"/><path d="M51.3 21.2l5.3 -0.1" fill="none" stroke="#fffce3" stroke-width="0.4709662052365424" opacity=".11"/><path d="M1.7 9.0l2.4 -0.1" fill="none" stroke="#8f7848" stroke-width="0.5205744760896767" opacity=".11"/><path d="M49.4 38.7l3.2 -0.1" fill="none" stroke="#fffce3" stroke-width="0.6613468485980083" opacity=".11"/><path d="M68.1 27.7l4.1 -0.1" fill="none" stroke="#8f7848" stroke-width="0.5392003433274897" opacity=".11"/><path d="M46.6 42.1l1.8 0.3" fill="none" stroke="#fffce3" stroke-width="0.46582302715946355" opacity=".11"/><path d="M7.2 45.6l2.4 -0.1" fill="none" stroke="#8f7848" stroke-width="0.5138069961254167" opacity=".11"/><path d="M54.7 46.5l1.7 0.2" fill="none" stroke="#fffce3" stroke-width="0.4343446011324648" opacity=".11"/><path d="M73.6 34.1l4.2 -0.2" fill="none" stroke="#8f7848" stroke-width="0.6191968367915193" opacity=".11"/><path d="M11.8 32.2l5.4 -0.3" fill="none" stroke="#8f7848" stroke-width="0.47524533178745637" opacity=".11"/><path d="M13.9 24.7l5.2 -0.1" fill="none" stroke="#fffce3" stroke-width="0.5703167826844238" opacity=".11"/><path d="M78.7 50.0l2.6 -0.3" fill="none" stroke="#8f7848" stroke-width="0.6432501334532137" opacity=".11"/><path d="M18.2 31.9l2.0 -0.3" fill="none" stroke="#8f7848" stroke-width="0.6701538381853049" opacity=".11"/><path d="M48.6 56.9l2.4 -0.1" fill="none" stroke="#fffce3" stroke-width="0.40096280447704563" opacity=".11"/><path d="M80.8 1.3l2.0 0.2" fill="none" stroke="#fffce3" stroke-width="0.4036979474062779" opacity=".11"/><path d="M76.0 27.9l3.2 0.0" fill="none" stroke="#fffce3" stroke-width="0.6365408923520222" opacity=".11"/><path d="M16.1 27.1l4.9 -0.0" fill="none" stroke="#fffce3" stroke-width="0.6496970848288811" opacity=".11"/><path d="M61.1 46.5l3.0 0.2" fill="none" stroke="#8f7848" stroke-width="0.48012936554182173" opacity=".11"/><path d="M56.5 41.7l3.3 0.2" fill="none" stroke="#8f7848" stroke-width="0.5388235219343476" opacity=".11"/><path d="M44.3 36.0l5.9 -0.3" fill="none" stroke="#fffce3" stroke-width="0.6367886770319436" opacity=".11"/><path d="M0.3 44.9l4.5 0.1" fill="none" stroke="#fffce3" stroke-width="0.58438835068262" opacity=".11"/><path d="M72.7 41.9l5.7 0.2" fill="none" stroke="#8f7848" stroke-width="0.4182482440083785" opacity=".11"/><path d="M36.2 48.2l3.7 0.1" fill="none" stroke="#fffce3" stroke-width="0.6500680129399217" opacity=".11"/><path d="M80.5 36.0l1.6 -0.1" fill="none" stroke="#fffce3" stroke-width="0.49742659874266937" opacity=".11"/></pattern><pattern id="grain" width="31" height="29" patternUnits="userSpaceOnUse"><path d="M6.0 25.8l0.6 0.4" fill="none" stroke="#e0aa6a" stroke-width="0.65" opacity=".3"/><path d="M4.5 0.5l0.6 0.1" fill="none" stroke="#704c32" stroke-width="0.65" opacity=".3"/><path d="M25.6 15.4l0.8 0.1" fill="none" stroke="#e0aa6a" stroke-width="0.65" opacity=".3"/><path d="M14.2 15.3l1.2 -0.0" fill="none" stroke="#704c32" stroke-width="0.65" opacity=".3"/><path d="M0.2 4.2l0.7 0.3" fill="none" stroke="#e0aa6a" stroke-width="0.65" opacity=".3"/><path d="M2.3 19.4l1.6 -0.0" fill="none" stroke="#704c32" stroke-width="0.65" opacity=".3"/><path d="M16.1 2.0l0.5 -0.0" fill="none" stroke="#e0aa6a" stroke-width="0.65" opacity=".3"/><path d="M4.5 10.2l1.4 0.1" fill="none" stroke="#704c32" stroke-width="0.65" opacity=".3"/><path d="M5.7 9.8l1.5 -0.2" fill="none" stroke="#e0aa6a" stroke-width="0.65" opacity=".3"/><path d="M15.3 11.0l0.5 -0.3" fill="none" stroke="#704c32" stroke-width="0.65" opacity=".3"/><path d="M24.0 12.8l1.0 -0.1" fill="none" stroke="#e0aa6a" stroke-width="0.65" opacity=".3"/><path d="M6.1 27.4l1.4 -0.4" fill="none" stroke="#704c32" stroke-width="0.65" opacity=".3"/><path d="M11.3 2.6l0.7 -0.3" fill="none" stroke="#704c32" stroke-width="0.65" opacity=".3"/><path d="M8.7 14.8l0.7 0.1" fill="none" stroke="#e0aa6a" stroke-width="0.65" opacity=".3"/><path d="M14.9 15.5l1.0 -0.1" fill="none" stroke="#e0aa6a" stroke-width="0.65" opacity=".3"/><path d="M0.2 12.1l0.8 -0.1" fill="none" stroke="#e0aa6a" stroke-width="0.65" opacity=".3"/><path d="M0.1 19.0l0.6 -0.4" fill="none" stroke="#704c32" stroke-width="0.65" opacity=".3"/><path d="M0.1 5.5l1.5 -0.3" fill="none" stroke="#704c32" stroke-width="0.65" opacity=".3"/><path d="M21.0 17.6l1.2 0.4" fill="none" stroke="#e0aa6a" stroke-width="0.65" opacity=".3"/><path d="M4.6 2.4l0.5 -0.0" fill="none" stroke="#e0aa6a" stroke-width="0.65" opacity=".3"/><path d="M0.4 15.7l1.0 -0.0" fill="none" stroke="#704c32" stroke-width="0.65" opacity=".3"/><path d="M15.4 13.4l1.6 0.4" fill="none" stroke="#e0aa6a" stroke-width="0.65" opacity=".3"/><path d="M11.7 23.8l1.3 0.3" fill="none" stroke="#e0aa6a" stroke-width="0.65" opacity=".3"/><path d="M9.0 16.8l0.4 -0.4" fill="none" stroke="#704c32" stroke-width="0.65" opacity=".3"/><path d="M19.3 0.5l1.5 -0.4" fill="none" stroke="#704c32" stroke-width="0.65" opacity=".3"/><path d="M4.7 27.5l0.8 0.0" fill="none" stroke="#e0aa6a" stroke-width="0.65" opacity=".3"/><path d="M11.4 13.9l0.6 0.0" fill="none" stroke="#704c32" stroke-width="0.65" opacity=".3"/><path d="M20.7 19.4l0.4 -0.0" fill="none" stroke="#704c32" stroke-width="0.65" opacity=".3"/><path d="M14.1 25.1l1.0 0.3" fill="none" stroke="#e0aa6a" stroke-width="0.65" opacity=".3"/><path d="M3.6 14.7l1.0 -0.4" fill="none" stroke="#e0aa6a" stroke-width="0.65" opacity=".3"/><path d="M6.3 27.7l1.2 0.1" fill="none" stroke="#e0aa6a" stroke-width="0.65" opacity=".3"/><path d="M28.3 12.1l1.3 0.2" fill="none" stroke="#704c32" stroke-width="0.65" opacity=".3"/><path d="M24.4 11.2l1.3 -0.2" fill="none" stroke="#e0aa6a" stroke-width="0.65" opacity=".3"/><path d="M10.0 1.8l1.0 -0.2" fill="none" stroke="#704c32" stroke-width="0.65" opacity=".3"/><path d="M28.0 27.1l0.7 -0.2" fill="none" stroke="#e0aa6a" stroke-width="0.65" opacity=".3"/><path d="M22.3 21.7l0.6 -0.2" fill="none" stroke="#704c32" stroke-width="0.65" opacity=".3"/><path d="M9.4 21.4l1.4 0.3" fill="none" stroke="#e0aa6a" stroke-width="0.65" opacity=".3"/><path d="M15.2 28.9l1.3 -0.2" fill="none" stroke="#e0aa6a" stroke-width="0.65" opacity=".3"/><path d="M1.4 13.2l1.2 0.2" fill="none" stroke="#704c32" stroke-width="0.65" opacity=".3"/><path d="M2.7 12.0l1.3 0.1" fill="none" stroke="#e0aa6a" stroke-width="0.65" opacity=".3"/><path d="M19.8 10.2l1.3 -0.1" fill="none" stroke="#704c32" stroke-width="0.65" opacity=".3"/><path d="M28.8 12.2l0.9 0.1" fill="none" stroke="#704c32" stroke-width="0.65" opacity=".3"/><path d="M4.5 14.7l0.5 0.1" fill="none" stroke="#704c32" stroke-width="0.65" opacity=".3"/><path d="M13.4 26.9l1.0 -0.2" fill="none" stroke="#e0aa6a" stroke-width="0.65" opacity=".3"/><path d="M22.0 10.3l0.4 -0.0" fill="none" stroke="#704c32" stroke-width="0.65" opacity=".3"/></pattern></defs><g opacity="0.3"><g transform="translate(40 40) rotate(0) scale(1)"><circle cx="0" cy="0" r="21.599999999999998" fill="none" stroke="#9d8751" stroke-width="0.9"/><circle cx="0" cy="0" r="17.099999999999998" fill="none" stroke="#9d8751" stroke-width="0.75"/><g transform="translate(0 0) rotate(0) scale(1)"><path d="M0 -30L-4.8 -4.8L0 0L4.8 -4.8Z" fill="#9d8751" /><path d="M0 -30L0 0L4.8 -4.8Z" fill="#f7edc9" /></g><g transform="translate(0 0) rotate(45) scale(0.65)"><path d="M0 -30L-4.8 -4.8L0 0L4.8 -4.8Z" fill="#9d8751" /><path d="M0 -30L0 0L4.8 -4.8Z" fill="#f7edc9" /></g><g transform="translate(0 0) rotate(90) scale(1)"><path d="M0 -30L-4.8 -4.8L0 0L4.8 -4.8Z" fill="#9d8751" /><path d="M0 -30L0 0L4.8 -4.8Z" fill="#f7edc9" /></g><g transform="translate(0 0) rotate(135) scale(0.65)"><path d="M0 -30L-4.8 -4.8L0 0L4.8 -4.8Z" fill="#9d8751" /><path d="M0 -30L0 0L4.8 -4.8Z" fill="#f7edc9" /></g><g transform="translate(0 0) rotate(180) scale(1)"><path d="M0 -30L-4.8 -4.8L0 0L4.8 -4.8Z" fill="#9d8751" /><path d="M0 -30L0 0L4.8 -4.8Z" fill="#f7edc9" /></g><g transform="translate(0 0) rotate(225) scale(0.65)"><path d="M0 -30L-4.8 -4.8L0 0L4.8 -4.8Z" fill="#9d8751" /><path d="M0 -30L0 0L4.8 -4.8Z" fill="#f7edc9" /></g><g transform="translate(0 0) rotate(270) scale(1)"><path d="M0 -30L-4.8 -4.8L0 0L4.8 -4.8Z" fill="#9d8751" /><path d="M0 -30L0 0L4.8 -4.8Z" fill="#f7edc9" /></g><g transform="translate(0 0) rotate(315) scale(0.65)"><path d="M0 -30L-4.8 -4.8L0 0L4.8 -4.8Z" fill="#9d8751" /><path d="M0 -30L0 0L4.8 -4.8Z" fill="#f7edc9" /></g><circle cx="0" cy="0" r="3.0" fill="#9d8751"/><path d="M-36.0 0H36.0M0 -36.0V36.0" fill="none" stroke="#9d8751" stroke-width="0.65" /></g></g></svg>