<svg xmlns="http://www.w3.org/2000/svg" width="100" height="120" viewBox="0 0 100 120"><defs><linearGradient id="paper" x1="0" y1="0" x2="0" y2="1"><stop stop-color="#f7edcb"/><stop offset=".5" stop-color="#efe2b9"/><stop offset="1" stop-color="#e1cfa0"/></linearGradient><linearGradient id="gold" x1="0" y1="0" x2=".65" y2="1"><stop stop-color="#f9e4ae"/><stop offset=".26" stop-color="#e1bd71"/><stop offset=".27" stop-color="#b48746"/><stop offset=".72" stop-color="#cca15e"/><stop offset=".73" stop-color="#927046"/></linearGradient><linearGradient id="teal" x1="0" y1="0" x2=".7" y2="1"><stop stop-color="#67a19a"/><stop offset=".45" stop-color="#548f87"/><stop offset=".46" stop-color="#3d786f"/><stop offset="1" stop-color="#315a59"/></linearGradient><pattern id="fiber" width="81" height="57" patternUnits="userSpaceOnUse"><path d="M78.6 33.3l4.8 -0.2" fill="none" stroke="#fffce3" stroke-width="0.43123136374308046" opacity=".11"/><path d="M29.4 32.2l4.5 -0.2" fill="none" stroke="#8f7848" stroke-width="0.4442940286933034" opacity=".11"/><path d="M54.4 16.1l3.3 0.1" fill="none" stroke="#8f7848" stroke-width="0.42036753118102227" opacity=".11"/><path d="M53.4 11.9l3.3 -0.1" fill="none" stroke="#fffce3" stroke-width="0.5865532183353128" opacity=".11"/><path d="M51.4 15.8l5.6 0.1" fill="none" stroke="#fffce3" stroke-width="0.6676817959438368" opacity=".11"/><path d="M10.2 8.7l3.9 -0.1" fill="none" stroke="#8f7848" stroke-width="0.5419411354919681" opacity=".11"/><path d="M76.1 55.9l3.8 -0.2" fill="none" stroke="#8f7848" stroke-width="0.6592957733547904" opacity=".11"/><path d="M53.5 1.4l3.9 -0.3" fill="none" stroke="#fffce3" stroke-width="0.42033429957733187" opacity=".11"/><path d="M13.0 50.7l2.0 0.0" fill="none" stroke="#8f7848" stroke-width="0.4131906054311337" opacity=".11"/><path d="M46.9 44.4l4.3 0.0" fill="none" stroke="#fffce3" stroke-width="0.40622244135390423" opacity=".11"/><path d="M47.2 41.9l3.9 -0.1" fill="none" stroke="#fffce3" stroke-width="0.4115925627654499" opacity=".11"/><path d="M61.8 53.5l4.1 0.1" fill="none" stroke="#8f7848" stroke-width="0.6746157288091438" opacity=".11"/><path d="M38.8 32.5l4.3 -0.0" fill="none" stroke="#8f7848" stroke-width="0.4338805569306976" opacity=".11"/><path d="M33.7 9.7l5.6 -0.1" fill="none" stroke="#8f7848" stroke-width="0.5069868369058628" opacity=".11"/><path d="M35.2 18.9l4.5 -0.2" fill="none" stroke="#8f7848" stroke-width="0.4538328673773461" opacity=".11"/><path d="M48.4 16.0l3.2 0.0" fill="none" stroke="#fffce3" stroke-width="0.6905096919841927" opacity=".11"/><path d="M6.4 39.7l4.9 -0.1" fill="none" stroke="#fffce3" stroke-width="0.5267792272413736" opacity=".11"/><path d="M71.8 36.6l3.9 -0.3" fill="none" stroke="#fffce3" stroke-width="0.6995137183119735" opacity=".11"/><path d="M65.1 37.2l1.5 0.2" fill="none" stroke="#8f7848" stroke-width="0.587220966850346" opacity=".11"/><path d="M66.2 3.9l3.3 0.2" fill="none" stroke="#fffce3" stroke-width="0.436174412816287" opacity=".11"/><path d="M69.0 29.0l5.6 0.1" fill="none" stroke="#fffce3" stroke-width="0.6938680611602361" opacity=".11"/><path d="M72.2 42.5l3.2 0.3" fill="none" stroke="#fffce3" stroke-width="0.6047988045298409" opacity=".11"/><path d="M71.1 20.0l3.4 -0.0" fill="none" stroke="#8f7848" stroke-width="0.5266088413770954" opacity=".11"/><path d="M70.1 41.1l3.6 -0.1" fill="none" stroke="#8f7848" stroke-width="0.48557314693764475" opacity=".11"/><path d="M61.1 49.5l4.8 -0.0" fill="none" stroke="#fffce3" stroke-width="0.5572265785031858" opacity=".11"/><path d="M64.7 18.3l1.4 -0.3" fill="none" stroke="#fffce3" stroke-width="0.42115189641698114" opacity=".11"/><path d="M1.3 29.1l1.9 -0.1" fill="none" stroke="#8f7848" stroke-width="0.47853365257240843" opacity=".11"/><path d="M24.6 45.5l5.4 -0.3" fill="none" stroke="#8f7848" stroke-width="0.6137641532246209" opacity=".11"/><path d="M37.2 20.2l2.0 -0.3" fill="none" stroke="#8f7848" stroke-width="0.5968696830953255" opacity=".11"/><path d="M33.8 30.0l1.3 0.3" fill="none" stroke="#fffce3" stroke-width="0.581439233013191" opacity=".11"/><path d="M19.6 42.7l5.1 -0.3" fill="none" stroke="#fffce3" stroke-width="0.5474480318280467" opacity=".11"/><path d="M14.0 32.8l5.0 0.1" fill="none" stroke="#8f7848" stroke-width="0.6539974942805529" opacity=".11"/><path d="M24.9 50.7l2.3 0.1" fill="none" stroke="#fffce3" stroke-width="0.44024045462994965" opacity=".11"/><path d="M10.3 21.4l4.2 0.2" fill="none" stroke="#8f7848" stroke-width="0.6579540586811126" opacity=".11"/><path d="M73.4 39.6l3.0 0.1" fill="none" stroke="#8f7848" stroke-width="0.454718820834519" opacity=".11"/><path d="M73.4 29.6l4.9 0.2" fill="none" stroke="#8f7848" stroke-width="0.5966127675802085" opacity=".11"/><path d="M79.6 24.7l5.3 0.3" fill="none" stroke="#8f7848" stroke-width="0.6677630269061448" opacity=".11"/><path d="M3.0 21.0l2.4 0.1" fill="none" stroke="#fffce3" stroke-width="0.575669274037421" opacity=".11"/><path d="M2.7 0.9l4.7 0.1" fill="none" stroke="#8f7848" stroke-width="0.42016373102164184" opacity=".11"/><path d="M17.8 56.6l3.5 -0.1" fill="none" stroke="#8f7848" stroke-width="0.5591169795284178" opacity=".11"/><path d="M29.9 36.7l1.7 -0.1" fill="none" stroke="#fffce3" stroke-width="0.6504400237410553" opacity=".11"/><path d="M8.2 51.0l5.4 0.2" fill="none" stroke="#8f7848" stroke-width="0.41872128621573756" opacity=".11"/><path d="M79.2 35.5l3.6 0.3" fill="none" stroke="#fffce3" stroke-width="0.592995925816683" opacity=".11"/><path d="M76.9 41.9l1.2 0.1" fill="none" stroke="#8f7848" stroke-width="0.5954554878692906" opacity=".11"/><path d="M74.6 51.5l4.2 0.2" fill="none" stroke="#fffce3" stroke-width="0.5876410325806369" opacity=".11"/><path d="M0.0 27.4l4.5 -0.1" fill="none" stroke="#8f7848" stroke-width="0.6477740653992221" opacity=".11"/><path d="M74.8 53.3l5.8 0.0" fill="none" stroke="#fffce3" stroke-width="0.6746024923028409" opacity=".11"/><path d="M49.8 22.5l1.4 -0.2" fill="none" stroke="#8f7848" stroke-width="0.6995271008743511" opacity=".11"/><path d="M73.2 14.2l3.6 0.1" fill="none" stroke="#fffce3" stroke-width="0.6082163062064314" opacity=".11"/><path d="M14.1 49.6l3.0 0.2" fill="none" stroke="#8f7848" stroke-width="0.5349487246946741" opacity=".11"/><path d="M70.9 18.6l1.7 -0.3" fill="none" stroke="#fffce3" stroke-width="0.6184503850699395" opacity=".11"/><path d="M22.4 8.6l1.3 -0.1" fill="none" stroke="#8f7848" stroke-width="0.48249190578888734" opacity=".11"/><path d="M54.8 20.9l5.3 0.0" fill="none" stroke="#fffce3" stroke-width="0.4309114940722585" opacity=".11"/><path d="M24.1 54.2l5.8 0.2" fill="none" stroke="#fffce3" stroke-width="0.4560958506391133" opacity=".11"/><path d="M6.2 8.8l1.6 -0.2" fill="none" stroke="#8f7848" stroke-width="0.4218333726985472" opacity=".11"/><path d="M53.5 34.3l3.5 -0.2" fill="none" stroke="#8f7848" stroke-width="0.6308973129753668" opacity=".11"/><path d="M61.3 51.1l1.6 -0.2" fill="none" stroke="#fffce3" stroke-width="0.5034743649221698" opacity=".11"/><path d="M68.1 35.2l2.8 0.1" fill="none" stroke="#8f7848" stroke-width="0.53062964794315" opacity=".11"/><path d="M37.7 42.2l1.2 -0.2" fill="none" stroke="#fffce3" stroke-width="0.4107549859405179" opacity=".11"/><path d="M46.1 37.8l2.6 -0.1" fill="none" stroke="#fffce3" stroke-width="0.5005067375472801" opacity=".11"/><path d="M61.1 12.3l2.1 0.1" fill="none" stroke="#fffce3" stroke-width="0.44840118428607634" opacity=".11"/><path d="M64.0 4.4l4.4 0.2" fill="none" stroke="#8f7848" stroke-width="0.4776660031132181" opacity=".11"/><path d="M69.4 39.3l2.6 0.1" fill="none" stroke="#fffce3" stroke-width="0.5426876510802692" opacity=".11"/><path d="M46.1 41.0l2.9 0.3" fill="none" stroke="#8f7848" stroke-width="0.6445490956111057" opacity=".11"/><path d="M64.8 33.6l5.6 0.1" fill="none" stroke="#8f7848" stroke-width="0.4275445231393362" opacity=".11"/><path d="M61.1 8.9l1.6 -0.1" fill="none" stroke="#fffce3" stroke-width="0.6654830943625776" opacity=".11"/><path d="M41.3 26.7l3.7 0.2" fill="none" stroke="#fffce3" stroke-width="0.46226807794996083" opacity=".11"/><path d="M73.6 45.6l2.4 -0.0" fill="none" stroke="#fffce3" stroke-width="0.4344887182840866" opacity=".11"/><path d="M70.8 14.7l5.6 -0.2" fill="none" stroke="#fffce3" stroke-width="0.5790454384787437" opacity=".11"/><path d="M18.1 45.9l3.6 -0.0" fill="none" stroke="#fffce3" stroke-width="0.625853671531321" opacity=".11"/><path d="M69.0 37.2l3.2 -0.2" fill="none" stroke="#8f7848" stroke-width="0.6420839789439532" opacity=".11"/><path d="M67.7 45.8l4.0 -0.0" fill="none" stroke="#fffce3" stroke-width="0.679195667918847" opacity=".11"/><path d="M56.6 28.6l1.7 -0.2" fill="none" stroke="#fffce3" stroke-width="0.42101495275207085" opacity=".11"/><path d="M67.3 55.8l2.7 -0.2" fill="none" stroke="#fffce3" stroke-width="0.6226204561077365" opacity=".11"/><path d="M13.9 42.9l4.9 0.1" fill="none" stroke="#8f7848" stroke-width="0.5902511735353662" opacity=".11"/><path d="M35.6 31.6l4.6 0.2" fill="none" stroke="#8f7848" stroke-width="0.4395457405246946" opacity=".11"/><path d="M17.4 50.3l4.5 0.3" fill="none" stroke="#fffce3" stroke-width="0.4371281257720314" opacity=".11"/><path d="M14.4 22.4l2.5 0.3" fill="none" stroke="#fffce3" stroke-width="0.554585616672363" opacity=".11"/><path d="M8.6 2.3l3.7 0.2" fill="none" stroke="#8f7848" stroke-width="0.47863931320521835" opacity=".11"/><path d="M58.6 22.2l1.7 0.2" fill="none" stroke="#fffce3" stroke-width="0.5111597624815223" opacity=".11"/><path d="M55.6 17.0l4.7 -0.2" fill="none" stroke="#8f7848" stroke-width="0.4055582995448679" opacity=".11"/><path d="M15.4 1.8l2.9 -0.1" fill="none" stroke="#fffce3" stroke-width="0.6776585695047075" opacity=".11"/><path d="M62.7 48.5l1.8 -0.2" fill="none" stroke="#8f7848" stroke-width="0.6114913845589763" opacity=".11"/><path d="M23.0 14.4l2.4 -0.2" fill="none" stroke="#fffce3" stroke-width="0.6727067170402716" opacity=".11"/><path d="M44.8 3.9l4.8 -0.0" fill="none" stroke="#8f7848" stroke-width="0.5388947969810607" opacity=".11"/><path d="M34.3 21.3l2.6 0.1" fill="none" stroke="#8f7848" stroke-width="0.6846881909744827" opacity=".11"/><path d="M39.4 55.0l4.4 -0.0" fill="none" stroke="#8f7848" stroke-width="0.4438815544343687" opacity=".11"/><path d="M80.3 6.9l5.7 -0.0" fill="none" stroke="#fffce3" stroke-width="0.6441723780946427" opacity=".11"/><path d="M18.7 24.6l3.0 0.0" fill="none" stroke="#fffce3" stroke-width="0.6332589518515849" opacity=".11"/><path d="M14.2 6.5l4.5 0.3" fill="none" stroke="#fffce3" stroke-width="0.4551438632856074" opacity=".11"/><path d="M63.2 16.8l4.6 0.3" fill="none" stroke="#fffce3" stroke-width="0.42124312884193676" opacity=".11"/><path d="M40.2 31.7l5.1 0.1" fill="none" stroke="#fffce3" stroke-width="0.5856947988733142" opacity=".11"/><path d="M37.6 49.9l1.5 -0.1" fill="none" stroke="#8f7848" stroke-width="0.5171813441164338" opacity=".11"/><path d="M69.1 33.4l4.9 0.0" fill="none" stroke="#8f7848" stroke-width="0.5304986160841355" opacity=".11"/><path d="M72.4 13.9l2.1 0.1" fill="none" stroke="#8f7848" stroke-width="0.5991751332917337" opacity=".11"/><path d="M62.0 8.1l5.1 -0.1" fill="none" stroke="#fffce3" stroke-width="0.5111353511059127" opacity=".11"/><path d="M42.2 51.5l2.1 -0.2" fill="none" stroke="#fffce3" stroke-width="0.5629188646719746" opacity=".11"/><path d="M69.8 37.0l5.9 -0.1" fill="none" stroke="#8f7848" stroke-width="0.5372478761131231" opacity=".11"/><path d="M32.2 23.4l3.0 -0.0" fill="none" stroke="#fffce3" stroke-width="0.640695709490071" opacity=".11"/><path d="M27.0 29.9l4.5 0.2" fill="none" stroke="#8f7848" stroke-width="0.6465974860665629" opacity=".11"/><path d="M48.9 14.2l5.6 -0.1" fill="none" stroke="#8f7848" stroke-width="0.6631745898387722" opacity=".11"/><path d="M45.3 36.5l4.1 0.2" fill="none" stroke="#8f7848" stroke-width="0.5588463686662455" opacity=".11"/><path d="M45.4 39.2l2.5 0.3" fill="none" stroke="#8f7848" stroke-width="0.4272554955765531" opacity=".11"/><path d="M42.4 17.7l5.3 0.2" fill="none" stroke="#fffce3" stroke-width="0.46484037618339036" opacity=".11"/><path d="M3.9 5.6l6.0 -0.2" fill="none" stroke="#8f7848" stroke-width="0.5226013202077007" opacity=".11"/><path d="M10.7 54.2l1.6 0.1" fill="none" stroke="#fffce3" stroke-width="0.5440461590228363" opacity=".11"/><path d="M14.7 41.1l2.1 -0.2" fill="none" stroke="#8f7848" stroke-width="0.5345440245982165" opacity=".11"/><path d="M48.9 40.2l1.4 -0.2" fill="none" stroke="#fffce3" stroke-width="0.4870896960777171" opacity=".11"/><path d="M32.4 23.1l3.2 0.2" fill="none" stroke="#8f7848" stroke-width="0.5220958353558259" opacity=".11"/><path d="M59.5 45.0l3.3 0.2" fill="none" stroke="#fffce3" stroke-width="0.6398820949168593" opacity=".11"/><path d="M48.2 16.6l5.0 -0.2" fill="none" stroke="#fffce3" stroke-width="0.6785417241583815" opacity=".11"/><path d="M38.3 49.7l4.0 -0.0" fill="none" stroke="#fffce3" stroke-width="0.5832097703076682" opacity=".11"/><path d="M65.4 39.8l3.7 -0.2" fill="none" stroke="#fffce3" stroke-width="0.5330068972759429" opacity=".11"/><path d="M75.8 24.1l3.6 -0.2" fill="none" stroke="#fffce3" stroke-width="0.4338003862946033" opacity=".11"/><path d="M44.5 7.4l5.5 -0.3" fill="none" stroke="#8f7848" stroke-width="0.6589434405251591" opacity=".11"/><path d="M13.9 12.0l3.9 0.1" fill="none" stroke="#fffce3" stroke-width="0.698967809285257" opacity=".11"/><path d="M14.3 15.1l4.5 -0.1" fill="none" stroke="#8f7848" stroke-width="0.5735538027547162" opacity=".11"/><path d="M10.6 0.7l5.1 0.3" fill="none" stroke="#8f7848" stroke-width="0.40586638583572315" opacity=".11"/><path d="M6.2 44.5l4.8 0.1" fill="none" stroke="#fffce3" stroke-width="0.4191515908440502" opacity=".11"/><path d="M17.1 14.2l2.8 0.2" fill="none" stroke="#fffce3" stroke-width="0.6514135757998241" opacity=".11"/><path d="M33.1 17.1l5.7 0.2" fill="none" stroke="#fffce3" stroke-width="0.6449522902610643" opacity=".11"/><path d="M28.7 13.2l1.5 0.2" fill="none" stroke="#8f7848" stroke-width="0.6569859264634376" opacity=".11"/><path d="M8.4 47.7l5.3 0.0" fill="none" stroke="#fffce3" stroke-width="0.6379688287729703" opacity=".11"/><path d="M3.0 49.0l5.7 -0.2" fill="none" stroke="#8f7848" stroke-width="0.617451393369226" opacity=".11"/><path d="M30.1 40.9l4.8 0.2" fill="none" stroke="#8f7848" stroke-width="0.5915639556986957" opacity=".11"/><path d="M60.9 7.8l4.6 0.1" fill="none" stroke="#fffce3" stroke-width="0.5430586381173084" opacity=".11"/><path d="M13.0 1.0l1.0 0.0" fill="none" stroke="#8f7848" stroke-width="0.4660644110746874" opacity=".11"/><path d="M36.4 25.4l2.9 0.2" fill="none" stroke="#fffce3" stroke-width="0.5436481499918555" opacity=".11"/><path d="M21.9 9.9l2.5 -0.1" fill="none" stroke="#8f7848" stroke-width="0.5444232384812473" opacity=".11"/><path d="M21.0 0.3l5.4 -0.1" fill="none" stroke="#fffce3" stroke-width="0.6660211447949117" opacity=".11"/></pattern><pattern id="grain" width="31" height="29" patternUnits="userSpaceOnUse"><path d="M26.2 3.0l1.3 -0.4" fill="none" stroke="#704c32" stroke-width="0.65" opacity=".3"/><path d="M5.0 20.1l1.0 -0.2" fill="none" stroke="#e0aa6a" stroke-width="0.65" opacity=".3"/><path d="M2.1 10.6l1.0 0.3" fill="none" stroke="#704c32" stroke-width="0.65" opacity=".3"/><path d="M15.0 5.5l0.5 0.0" fill="none" stroke="#704c32" stroke-width="0.65" opacity=".3"/><path d="M3.8 23.6l0.9 0.3" fill="none" stroke="#704c32" stroke-width="0.65" opacity=".3"/><path d="M15.9 16.5l1.6 -0.0" fill="none" stroke="#704c32" stroke-width="0.65" opacity=".3"/><path d="M10.8 25.6l0.6 -0.1" fill="none" stroke="#704c32" stroke-width="0.65" opacity=".3"/><path d="M4.5 9.4l0.9 -0.3" fill="none" stroke="#e0aa6a" stroke-width="0.65" opacity=".3"/><path d="M5.1 9.8l1.2 0.2" fill="none" stroke="#704c32" stroke-width="0.65" opacity=".3"/><path d="M2.1 24.0l0.7 0.2" fill="none" stroke="#704c32" stroke-width="0.65" opacity=".3"/><path d="M17.3 1.5l1.3 -0.1" fill="none" stroke="#e0aa6a" stroke-width="0.65" opacity=".3"/><path d="M17.5 22.9l0.6 0.3" fill="none" stroke="#704c32" stroke-width="0.65" opacity=".3"/><path d="M14.8 2.8l0.6 0.2" fill="none" stroke="#704c32" stroke-width="0.65" opacity=".3"/><path d="M23.7 13.0l0.9 0.1" fill="none" stroke="#704c32" stroke-width="0.65" opacity=".3"/><path d="M4.4 26.3l1.5 -0.3" fill="none" stroke="#704c32" stroke-width="0.65" opacity=".3"/><path d="M20.5 17.9l0.3 0.4" fill="none" stroke="#e0aa6a" stroke-width="0.65" opacity=".3"/><path d="M4.9 23.7l1.5 0.1" fill="none" stroke="#704c32" stroke-width="0.65" opacity=".3"/><path d="M27.7 10.3l0.4 -0.2" fill="none" stroke="#704c32" stroke-width="0.65" opacity=".3"/><path d="M23.5 9.8l0.3 -0.1" fill="none" stroke="#704c32" stroke-width="0.65" opacity=".3"/><path d="M30.4 6.9l0.6 0.3" fill="none" stroke="#e0aa6a" stroke-width="0.65" opacity=".3"/><path d="M7.9 5.6l1.1 0.3" fill="none" stroke="#704c32" stroke-width="0.65" opacity=".3"/><path d="M13.0 11.6l1.4 -0.2" fill="none" stroke="#704c32" stroke-width="0.65" opacity=".3"/><path d="M17.1 23.3l1.5 -0.2" fill="none" stroke="#704c32" stroke-width="0.65" opacity=".3"/><path d="M8.8 12.8l1.6 -0.4" fill="none" stroke="#e0aa6a" stroke-width="0.65" opacity=".3"/><path d="M13.3 13.2l0.7 0.3" fill="none" stroke="#e0aa6a" stroke-width="0.65" opacity=".3"/><path d="M20.1 21.0l1.3 -0.1" fill="none" stroke="#704c32" stroke-width="0.65" opacity=".3"/><path d="M12.4 14.9l1.4 0.3" fill="none" stroke="#e0aa6a" stroke-width="0.65" opacity=".3"/><path d="M9.5 23.5l1.6 -0.4" fill="none" stroke="#e0aa6a" stroke-width="0.65" opacity=".3"/><path d="M10.6 23.1l1.4 -0.2" fill="none" stroke="#e0aa6a" stroke-width="0.65" opacity=".3"/><path d="M13.9 26.6l0.6 -0.3" fill="none" stroke="#704c32" stroke-width="0.65" opacity=".3"/><path d="M30.2 14.4l1.7 -0.2" fill="none" stroke="#e0aa6a" stroke-width="0.65" opacity=".3"/><path d="M15.0 20.6l0.6 -0.4" fill="none" stroke="#e0aa6a" stroke-width="0.65" opacity=".3"/><path d="M4.8 4.7l1.7 -0.2" fill="none" stroke="#e0aa6a" stroke-width="0.65" opacity=".3"/><path d="M27.2 5.2l0.7 0.2" fill="none" stroke="#704c32" stroke-width="0.65" opacity=".3"/><path d="M2.7 20.2l0.8 -0.2" fill="none" stroke="#704c32" stroke-width="0.65" opacity=".3"/><path d="M26.8 14.9l1.7 -0.2" fill="none" stroke="#e0aa6a" stroke-width="0.65" opacity=".3"/><path d="M28.1 0.6l1.3 0.1" fill="none" stroke="#704c32" stroke-width="0.65" opacity=".3"/><path d="M26.7 20.4l1.5 -0.1" fill="none" stroke="#704c32" stroke-width="0.65" opacity=".3"/><path d="M15.1 1.6l1.5 -0.0" fill="none" stroke="#704c32" stroke-width="0.65" opacity=".3"/><path d="M25.6 11.4l0.8 0.2" fill="none" stroke="#704c32" stroke-width="0.65" opacity=".3"/><path d="M3.3 16.4l1.0 0.1" fill="none" stroke="#704c32" stroke-width="0.65" opacity=".3"/><path d="M7.9 23.4l1.3 -0.1" fill="none" stroke="#e0aa6a" stroke-width="0.65" opacity=".3"/><path d="M2.3 24.3l0.6 -0.3" fill="none" stroke="#704c32" stroke-width="0.65" opacity=".3"/><path d="M20.0 28.6l1.2 -0.1" fill="none" stroke="#e0aa6a" stroke-width="0.65" opacity=".3"/><path d="M25.0 17.7l0.3 0.1" fill="none" stroke="#e0aa6a" stroke-width="0.65" opacity=".3"/></pattern></defs><path d="M7 15L73 9L91 18V98L76 108L9 101Z" fill="#9b6c45" stroke="#674c34" stroke-width="1" /><path d="M10 17L71 12L86 21V96L75 104L12 98Z" fill="url(#grain)" /><path d="M16 20L67 17M16 96L69 101" fill="none" stroke="#69452e" stroke-width="2.2" stroke-dasharray="3.5 4.5" stroke-linecap="round"/><path d="M16 20L67 17M16 96L69 101" fill="none" stroke="#e5bc7f" stroke-width="0.85" stroke-dasharray="3.5 4.5" stroke-linecap="round"/><circle cx="19" cy="27.4" r="6" fill="#694d34"/><circle cx="19" cy="26" r="5" fill="url(#gold)" stroke="#7c6039" stroke-width="0.8"/><circle cx="19" cy="26" r="2.6" fill="#a4783e" stroke="#f6d899" stroke-width="1"/><path d="M17.1 25.25Q19 23.0 20.4 24.65" fill="none" stroke="#f5dfaa" stroke-width="0.85" /><circle cx="19" cy="92.4" r="6" fill="#694d34"/><circle cx="19" cy="91" r="5" fill="url(#gold)" stroke="#7c6039" stroke-width="0.8"/><circle cx="19" cy="91" r="2.6" fill="#a4783e" stroke="#f6d899" stroke-width="1"/><path d="M17.1 90.25Q19 88.0 20.4 89.65" fill="none" stroke="#f5dfaa" stroke-width="0.85" /></svg>